<svg width="24" height="24" viewBox="0 0 24 24" fill="none" xmlns="http://www.w3.org/2000/svg">
<mask id="mask0_3455_4796" style="mask-type:alpha" maskUnits="userSpaceOnUse" x="0" y="0" width="24" height="24">
<rect width="24" height="24" fill="#D9D9D9"/>
</mask>
<g mask="url(#mask0_3455_4796)">
<path d="M7.55534 20C7.06645 20 6.64793 19.8259 6.29978 19.4778C5.95163 19.1296 5.77756 18.7111 5.77756 18.2222V6.66667H4.88867V4.88889H9.33312V4H14.6664V4.88889H19.1109V6.66667H18.222V18.2222C18.222 18.7111 18.0479 19.1296 17.6998 19.4778C17.3516 19.8259 16.9331 20 16.4442 20H7.55534ZM16.4442 6.66667H7.55534V18.2222H16.4442V6.66667ZM9.33312 16.4444H11.1109V8.44444H9.33312V16.4444ZM12.8887 16.4444H14.6664V8.44444H12.8887V16.4444Z" fill="#D3D3D3"/>
</g>
</svg>
