<svg width="15" height="20" viewBox="0 0 15 20" fill="none" xmlns="http://www.w3.org/2000/svg">
<path fill-rule="evenodd" clip-rule="evenodd" d="M1.875 2.72727C1.875 2.2252 2.29473 1.81818 2.8125 1.81818H12.1875C12.7053 1.81818 13.125 2.2252 13.125 2.72727V17.2727C13.125 17.7748 12.7053 18.1818 12.1875 18.1818H2.8125C2.29473 18.1818 1.875 17.7748 1.875 17.2727V2.72727ZM2.8125 0C1.2592 0 0 1.22104 0 2.72727V17.2727C0 18.779 1.2592 20 2.8125 20H12.1875C13.7408 20 15 18.779 15 17.2727V2.72727C15 1.22104 13.7408 0 12.1875 0H2.8125ZM7.49989 14.5454C6.98212 14.5454 6.56239 14.9524 6.56239 15.4545C6.56239 15.9566 6.98212 16.3636 7.49989 16.3636H7.50926C8.02703 16.3636 8.44676 15.9566 8.44676 15.4545C8.44676 14.9524 8.02703 14.5454 7.50926 14.5454H7.49989Z" fill="#8B8B8B"/>
</svg>
