<svg width="19" height="18" viewBox="0 0 19 18" fill="none" xmlns="http://www.w3.org/2000/svg">
<mask id="mask0_2825_9222" style="mask-type:alpha" maskUnits="userSpaceOnUse" x="0" y="0" width="19" height="18">
<rect x="0.5" width="18" height="18" fill="#D9D9D9"/>
</mask>
<g mask="url(#mask0_2825_9222)">
<path d="M5.06663 13.4333H13.9332V12.0333H5.06663V13.4333ZM9.49993 10.5435L12.9102 7.1333L11.9266 6.14973L10.1999 7.84769V3.63333H8.79995V7.84769L7.07327 6.14973L6.0897 7.1333L9.49993 10.5435ZM9.50149 17.8666C8.27516 17.8666 7.12246 17.6339 6.0434 17.1685C4.96433 16.703 4.0257 16.0714 3.2275 15.2736C2.42928 14.4757 1.79736 13.5375 1.33174 12.4589C0.866113 11.3803 0.633301 10.2279 0.633301 9.00152C0.633301 7.77519 0.866012 6.62249 1.33143 5.54344C1.79685 4.46436 2.42849 3.52573 3.22633 2.72753C4.02419 1.92931 4.96241 1.29739 6.041 0.831768C7.11958 0.366144 8.27203 0.133331 9.49837 0.133331C10.7247 0.133331 11.8774 0.366043 12.9565 0.831464C14.0355 1.29689 14.9742 1.92852 15.7724 2.72636C16.5706 3.52422 17.2025 4.46244 17.6681 5.54103C18.1337 6.61961 18.3666 7.77206 18.3666 8.9984C18.3666 10.2247 18.1338 11.3774 17.6684 12.4565C17.203 13.5356 16.5714 14.4742 15.7735 15.2724C14.9757 16.0706 14.0374 16.7025 12.9589 17.1682C11.8803 17.6338 10.7278 17.8666 9.50149 17.8666ZM9.49993 16.4666C11.5844 16.4666 13.3499 15.7433 14.7966 14.2966C16.2433 12.85 16.9666 11.0844 16.9666 8.99996C16.9666 6.91552 16.2433 5.14997 14.7966 3.7033C13.3499 2.25664 11.5844 1.53331 9.49993 1.53331C7.41549 1.53331 5.64994 2.25664 4.20327 3.7033C2.75661 5.14997 2.03328 6.91552 2.03328 8.99996C2.03328 11.0844 2.75661 12.85 4.20327 14.2966C5.64994 15.7433 7.41549 16.4666 9.49993 16.4666Z" fill="#D3D3D3"/>
</g>
</svg>
