<svg width="25" height="25" viewBox="0 0 25 25" fill="none" xmlns="http://www.w3.org/2000/svg">
<mask id="mask0_1852_4543" style="mask-type:alpha" maskUnits="userSpaceOnUse" x="0" y="0" width="25" height="25">
<rect x="0.285645" y="0.285706" width="24.7143" height="24.7143" fill="#D9D9D9"/>
</mask>
<g mask="url(#mask0_1852_4543)">
<path d="M13.6725 14.7024H15.732V11.6131H18.8213V9.55355H15.732V6.46426H13.6725V9.55355H10.5832V11.6131H13.6725V14.7024ZM8.52366 18.8214C7.95729 18.8214 7.47245 18.6197 7.06913 18.2164C6.6658 17.8131 6.46414 17.3282 6.46414 16.7619V4.40474C6.46414 3.83837 6.6658 3.35352 7.06913 2.9502C7.47245 2.54688 7.95729 2.34521 8.52366 2.34521H20.8808C21.4472 2.34521 21.932 2.54688 22.3353 2.9502C22.7387 3.35352 22.9403 3.83837 22.9403 4.40474V16.7619C22.9403 17.3282 22.7387 17.8131 22.3353 18.2164C21.932 18.6197 21.4472 18.8214 20.8808 18.8214H8.52366ZM8.52366 16.7619H20.8808V4.40474H8.52366V16.7619ZM4.40462 22.9405C3.83825 22.9405 3.3534 22.7388 2.95008 22.3355C2.54675 21.9321 2.34509 21.4473 2.34509 20.8809V6.46426H4.40462V20.8809H18.8213V22.9405H4.40462Z" fill="#D3D3D3"/>
</g>
</svg>
