<svg width="25" height="24" viewBox="0 0 25 24" fill="none" xmlns="http://www.w3.org/2000/svg">
<mask id="mask0_3224_5662" style="mask-type:alpha" maskUnits="userSpaceOnUse" x="0" y="0" width="25" height="24">
<rect x="0.702148" width="24" height="24" fill="#D9D9D9"/>
</mask>
<g mask="url(#mask0_3224_5662)">
<path d="M11.7021 17H13.7021V13H17.7021V11H13.7021V7H11.7021V11H7.70215V13H11.7021V17ZM5.70215 21C5.15215 21 4.68132 20.8042 4.28965 20.4125C3.89798 20.0208 3.70215 19.55 3.70215 19V5C3.70215 4.45 3.89798 3.97917 4.28965 3.5875C4.68132 3.19583 5.15215 3 5.70215 3H19.7021C20.2521 3 20.723 3.19583 21.1146 3.5875C21.5063 3.97917 21.7021 4.45 21.7021 5V19C21.7021 19.55 21.5063 20.0208 21.1146 20.4125C20.723 20.8042 20.2521 21 19.7021 21H5.70215ZM5.70215 19H19.7021V5H5.70215V19Z" fill="#1C1B1F"/>
</g>
</svg>
