<svg width="25" height="25" viewBox="0 0 25 25" fill="none" xmlns="http://www.w3.org/2000/svg">
<mask id="mask0_3402_4671" style="mask-type:alpha" maskUnits="userSpaceOnUse" x="0" y="0" width="25" height="25">
<rect x="0.384521" y="0.274414" width="24" height="24" fill="#D9D9D9"/>
</mask>
<g mask="url(#mask0_3402_4671)">
<path d="M5.38452 21.2744C4.83452 21.2744 4.36369 21.0786 3.97202 20.6869C3.58035 20.2952 3.38452 19.8244 3.38452 19.2744V5.27441C3.38452 4.72441 3.58035 4.25358 3.97202 3.86191C4.36369 3.47025 4.83452 3.27441 5.38452 3.27441H19.3845C19.9345 3.27441 20.4054 3.47025 20.797 3.86191C21.1887 4.25358 21.3845 4.72441 21.3845 5.27441V19.2744C21.3845 19.8244 21.1887 20.2952 20.797 20.6869C20.4054 21.0786 19.9345 21.2744 19.3845 21.2744H5.38452Z" fill="#FABB18"/>
<path d="M18.2576 9.13922L11.2139 16.1829L6.95189 11.921L8.35551 10.5173L11.2139 13.3757L16.854 7.7356L18.2576 9.13922Z" fill="#333333"/>
</g>
</svg>
