<svg width="250" height="250" viewBox="0 0 250 250" fill="none" xmlns="http://www.w3.org/2000/svg">
<g clip-path="url(#clip0_2463_4826)">
<rect width="250" height="250" fill="#070808"/>
<g clip-path="url(#clip1_2463_4826)">
<path d="M-110.472 361.472C-106.324 365.619 -100.602 368.174 -94.2767 368.174H133.267C145.918 368.174 156.174 357.918 156.174 345.267V117.733C156.174 113.783 155.175 110.059 153.412 106.817C152.356 104.865 151.027 103.093 149.472 101.538C145.324 97.3899 139.602 94.8352 133.276 94.8352H-94.2672C-106.918 94.8352 -117.174 105.092 -117.174 117.742V345.286C-117.174 351.611 -114.61 357.333 -110.462 361.481L-110.472 361.472ZM-106.748 345.276V117.733C-106.748 110.842 -101.158 105.261 -94.2767 105.261H133.267C136.708 105.261 139.828 106.656 142.081 108.919L133.653 117.346C133.757 117.45 133.814 117.591 133.814 117.742V345.286C133.814 345.597 133.559 345.842 133.257 345.842L-93.4283 345.87C-94.2672 345.87 -95.0779 346.2 -95.6813 346.794L-103.1 354.1C-105.363 351.837 -106.758 348.727 -106.758 345.286L-106.748 345.276Z" fill="#F1C442"/>
<path d="M-69.1634 320.173C-67.8248 321.502 -66.2788 322.624 -64.5726 323.482C-62.9794 324.283 -61.2449 324.849 -59.4256 325.141C-59.3973 325.141 -59.3784 325.15 -59.3501 325.15C-59.2842 325.15 -59.2276 325.169 -59.1616 325.179C-58.3415 325.292 -57.5025 325.358 -56.6541 325.358H95.6638C105.43 325.358 113.358 317.439 113.358 307.664V155.346C113.358 151.075 111.84 147.154 109.314 144.09C108.956 143.656 108.569 143.232 108.173 142.836C104.968 139.631 100.547 137.652 95.6638 137.652H-56.6541C-66.4202 137.652 -74.3481 145.57 -74.3481 155.346V307.664C-74.3481 312.547 -72.3685 316.968 -69.1634 320.173ZM-63.9127 307.664V155.346C-63.9127 151.339 -60.6605 148.087 -56.6541 148.087H95.6638C97.6623 148.087 99.4816 148.898 100.792 150.218L91.007 160.003V303.007H-48.7356C-50.8283 303.007 -52.8362 303.836 -54.3162 305.316L-61.7917 312.792C-63.102 311.481 -63.9221 309.662 -63.9221 307.664H-63.9127Z" fill="#F1C442"/>
<path d="M-26.9976 277.998C-25.4233 279.572 -23.5097 280.807 -21.3792 281.58C-21.2567 281.627 -21.1247 281.665 -21.0022 281.702C-20.8891 281.74 -20.7759 281.787 -20.6628 281.815C-20.5874 281.834 -20.5214 281.853 -20.446 281.881C-20.2763 281.929 -20.1066 281.985 -19.9275 282.032C-19.9275 282.032 -19.9275 282.032 -19.9181 282.032C-18.6832 282.353 -17.4011 282.513 -16.072 282.513H55.0625C63.5937 282.513 70.513 275.594 70.513 267.063V195.928C70.513 192.148 69.1555 188.688 66.9025 186.002C66.6103 185.653 66.3086 185.323 65.9881 185.002C63.1884 182.203 59.3234 180.478 55.0625 180.478H-16.072C-24.6032 180.478 -31.5225 187.397 -31.5225 195.928V267.063C-31.5225 271.333 -29.7974 275.198 -26.9976 277.988V277.998ZM-21.0964 267.072V195.937C-21.0964 193.157 -18.8434 190.913 -16.072 190.913H55.0625C56.4482 190.913 57.702 191.479 58.6164 192.384L48.1715 202.828V260.181H-5.90989C-8.00264 260.181 -10.0106 261.011 -11.4906 262.491L-19.6259 270.626C-20.5403 269.711 -21.0964 268.458 -21.0964 267.072Z" fill="#F1C442"/>
<path d="M157.475 52H-118.475C-141.41 52 -160 70.5896 -160 93.525V369.475C-160 381.193 -155.145 391.779 -147.34 399.33C-139.874 406.551 -129.693 411 -118.484 411H157.475C157.833 411 158.191 411 158.55 410.991C180.985 410.425 199 392.052 199 369.484V93.525C199 70.5896 180.41 52 157.475 52ZM-149.574 93.525C-149.574 76.3494 -135.651 62.426 -118.475 62.426H157.475C166.044 62.426 173.821 65.9139 179.449 71.5417L171.021 79.9693C174.5 83.4477 176.649 88.2365 176.649 93.525V369.475C176.649 380.071 168.061 388.659 157.466 388.659H-118.475C-121.774 388.376 -124.829 387.838 -127.534 386.387C-130.579 384.746 -135.764 386.764 -138.205 389.205L-140.458 391.458C-146.086 385.831 -149.574 378.053 -149.574 369.484V93.525Z" fill="#F1C442"/>
</g>
</g>
<defs>
<clipPath id="clip0_2463_4826">
<rect width="250" height="250" fill="white"/>
</clipPath>
<clipPath id="clip1_2463_4826">
<rect width="359" height="359" fill="white" transform="translate(-160 52)"/>
</clipPath>
</defs>
</svg>
