<svg width="17" height="17" viewBox="0 0 17 17" fill="none" xmlns="http://www.w3.org/2000/svg">
<mask id="mask0_1937_4563" style="mask-type:alpha" maskUnits="userSpaceOnUse" x="0" y="0" width="17" height="17">
<rect width="16.9999" height="16.9999" fill="#D9D9D9"/>
</mask>
<g mask="url(#mask0_1937_4563)">
<path d="M8.50002 16.8741C7.34161 16.8741 6.25299 16.6543 5.23415 16.2146C4.2153 15.775 3.32905 15.1783 2.57539 14.4247C1.82172 13.671 1.22507 12.7847 0.785433 11.7659C0.345795 10.7471 0.125977 9.65843 0.125977 8.50002C0.125977 7.34161 0.345795 6.25299 0.785433 5.23415C1.22507 4.2153 1.82172 3.32905 2.57539 2.57539C3.32905 1.82172 4.2153 1.22507 5.23415 0.785433C6.25299 0.345795 7.34161 0.125977 8.50002 0.125977C9.40721 0.125977 10.2656 0.258566 11.075 0.523744C11.8845 0.788922 12.6312 1.15878 13.3151 1.63331L12.1009 2.86848C11.5705 2.53352 11.0053 2.27183 10.4051 2.08341C9.80498 1.89499 9.16995 1.80079 8.50002 1.80079C6.64378 1.80079 5.06318 2.45326 3.75822 3.75822C2.45326 5.06318 1.80079 6.64378 1.80079 8.50002C1.80079 10.3563 2.45326 11.9369 3.75822 13.2418C5.06318 14.5468 6.64378 15.1993 8.50002 15.1993C10.3563 15.1993 11.9369 14.5468 13.2418 13.2418C14.5468 11.9369 15.1993 10.3563 15.1993 8.50002C15.1993 8.2488 15.1853 7.99758 15.1574 7.74636C15.1295 7.49514 15.0876 7.2509 15.0318 7.01363L16.3926 5.65285C16.5461 6.09946 16.6647 6.56004 16.7485 7.03457C16.8322 7.5091 16.8741 7.99758 16.8741 8.50002C16.8741 9.65843 16.6543 10.7471 16.2146 11.7659C15.775 12.7847 15.1783 13.671 14.4247 14.4247C13.671 15.1783 12.7847 15.775 11.7659 16.2146C10.7471 16.6543 9.65843 16.8741 8.50002 16.8741ZM7.32766 12.3521L3.76869 8.79312L4.94105 7.62075L7.32766 10.0074L15.7017 1.61237L16.8741 2.78474L7.32766 12.3521Z" fill="#D3D3D3"/>
</g>
</svg>
