<svg width="102" height="30" viewBox="0 0 102 30" fill="none" xmlns="http://www.w3.org/2000/svg">
<g clip-path="url(#clip0_60_3741)">
<path d="M31.1148 0V20.1452H25.6113V5.4497H18.6194V20.1452H12.7877V5.4497H5.83178V20.1452H0V0H31.1148Z" fill="#D3D3D3"/>
<path d="M48.0256 4.99182H37.7469V15.1533H48.0256V4.99182Z" fill="#D3D3D3"/>
<path d="M60.5121 5.47192V20.1452H54.6803V0H73.2278C73.7764 0 74.3114 0.128908 74.8375 0.386724C75.3591 0.64454 75.8132 0.977923 76.2044 1.38687C76.5911 1.79138 76.9013 2.25367 77.1396 2.77374C77.3779 3.28938 77.4948 3.82279 77.4948 4.36509V20.1452H71.6631V6.3965C71.6631 6.20092 71.5686 5.99644 71.3843 5.78752C71.1954 5.57861 71.0021 5.47192 70.8043 5.47192H60.5211H60.5121Z" fill="#D3D3D3"/>
<path d="M97.7779 20.1452H83.5334C83.0119 20.1452 82.4903 20.0341 81.9822 19.8118C81.4696 19.5896 81.011 19.2873 80.5973 18.905C80.1882 18.5227 79.8509 18.0871 79.5856 17.5937C79.3249 17.1003 79.1945 16.5936 79.1945 16.0779V3.9917C79.1945 3.4983 79.3249 3.01378 79.5856 2.53371C79.8464 2.05364 80.1837 1.62691 80.5973 1.25796C81.0065 0.889021 81.4651 0.586754 81.9642 0.351163C82.4633 0.115573 82.9489 0 83.421 0H97.742C98.2905 0 98.8256 0.128908 99.3517 0.386724C99.8777 0.64454 100.327 0.977923 100.719 1.38687C101.105 1.79138 101.415 2.25367 101.654 2.77374C101.892 3.28938 102.009 3.82279 102.009 4.36509V16.1579C102.009 16.6514 101.879 17.1359 101.618 17.6159C101.357 18.096 101.02 18.5227 100.606 18.8917C100.197 19.2606 99.7383 19.5629 99.2392 19.7985C98.7401 20.0341 98.2545 20.1497 97.7824 20.1497L97.7779 20.1452ZM85.0262 13.8243C85.0262 13.9976 85.1521 14.1754 85.3994 14.3621C85.6467 14.5488 85.8581 14.6377 86.0334 14.6377H95.4173C95.5927 14.5888 95.7591 14.4821 95.9209 14.3221C96.0828 14.1621 96.1637 13.9976 96.1637 13.8243V6.3965C96.1637 6.20092 96.0693 5.99644 95.885 5.78752C95.6961 5.57861 95.5028 5.47192 95.3049 5.47192H85.957C85.8086 5.47192 85.6153 5.56527 85.377 5.74752C85.1386 5.93421 85.0217 6.12535 85.0217 6.32094V13.8243H85.0262Z" fill="#D3D3D3"/>
</g>
<defs>
<clipPath id="clip0_60_3741">
<rect width="102" height="30" fill="white"/>
</clipPath>
</defs>
</svg>
