<svg width="185" height="55" viewBox="0 0 185 55" fill="none" xmlns="http://www.w3.org/2000/svg">
<g clip-path="url(#clip0_266_3112)">
<path d="M56.4338 0V36.9329H46.4518V9.99111H33.7706V36.9329H23.1933V9.99111H10.5773V36.9329H0V0H56.4338Z" fill="#D3D3D3"/>
<path d="M87.1054 9.15173H68.4626V27.7812H87.1054V9.15173Z" fill="#D3D3D3"/>
<path d="M109.752 10.0319V36.9329H99.175V0H132.815C133.81 0 134.781 0.236331 135.735 0.708994C136.681 1.18166 137.504 1.79286 138.214 2.5426C138.915 3.28419 139.478 4.13172 139.91 5.0852C140.342 6.03052 140.554 7.00845 140.554 8.00267V36.9329H129.977V11.7269C129.977 11.3684 129.806 10.9935 129.471 10.6105C129.129 10.2274 128.778 10.0319 128.419 10.0319H109.769H109.752Z" fill="#D3D3D3"/>
<path d="M177.342 36.9329H151.507C150.561 36.9329 149.615 36.7291 148.693 36.3217C147.763 35.9142 146.932 35.3601 146.181 34.6592C145.439 33.9584 144.828 33.1597 144.346 32.2552C143.873 31.3506 143.637 30.4215 143.637 29.4762V7.31812C143.637 6.41354 143.873 5.52526 144.346 4.64513C144.819 3.765 145.431 2.98266 146.181 2.30627C146.923 1.62987 147.755 1.07572 148.661 0.643799C149.566 0.211883 150.447 0 151.303 0H177.277C178.272 0 179.242 0.236331 180.197 0.708994C181.151 1.18166 181.966 1.79286 182.676 2.5426C183.377 3.28419 183.94 4.13172 184.372 5.0852C184.804 6.03052 185.016 7.00845 185.016 8.00267V29.6229C185.016 30.5275 184.78 31.4158 184.307 32.2959C183.834 33.176 183.222 33.9584 182.472 34.6348C181.73 35.3112 180.898 35.8653 179.993 36.2972C179.087 36.7291 178.207 36.941 177.35 36.941L177.342 36.9329ZM154.214 25.3445C154.214 25.6623 154.443 25.9883 154.891 26.3306C155.34 26.6728 155.723 26.8358 156.041 26.8358H173.061C173.379 26.7462 173.681 26.5506 173.974 26.2572C174.268 25.9639 174.415 25.6623 174.415 25.3445V11.7269C174.415 11.3684 174.243 10.9935 173.909 10.6105C173.566 10.2274 173.216 10.0319 172.857 10.0319H155.902C155.633 10.0319 155.283 10.203 154.85 10.5371C154.418 10.8794 154.206 11.2298 154.206 11.5884V25.3445H154.214Z" fill="#D3D3D3"/>
<path d="M129.504 55V45.1067H142.585C142.968 45.1067 143.319 45.2045 143.637 45.3919C143.947 45.5793 144.2 45.832 144.379 46.1417C144.558 46.4513 144.648 46.8017 144.648 47.1766V55.0082H143.262V47.1766C143.262 46.9973 143.196 46.8343 143.058 46.704C142.919 46.5736 142.764 46.5084 142.577 46.5084H138.458C138.279 46.5084 138.116 46.5736 137.985 46.704C137.855 46.8343 137.79 46.9892 137.79 47.1766V55.0082H136.371V47.1766C136.371 46.9973 136.305 46.8343 136.175 46.704C136.044 46.5736 135.889 46.5084 135.702 46.5084H131.567C131.388 46.5084 131.225 46.5736 131.094 46.704C130.964 46.8343 130.898 46.9892 130.898 47.1766V55.0082H129.479L129.504 55Z" fill="#D3D3D3"/>
<path d="M147.217 54.7148C146.907 54.5273 146.654 54.2747 146.467 53.965C146.279 53.6554 146.181 53.3049 146.181 52.9301V45.0985H147.584V52.9301C147.584 53.1093 147.649 53.2723 147.78 53.4027C147.91 53.5331 148.065 53.5983 148.253 53.5983H154.198C154.377 53.5983 154.54 53.5331 154.679 53.4027C154.817 53.2723 154.883 53.1175 154.883 52.9301V45.0985H156.285V52.9301C156.285 53.3049 156.188 53.6472 156 53.965C155.812 54.2747 155.56 54.5273 155.25 54.7148C154.94 54.9022 154.589 55 154.198 55H148.253C147.877 55 147.535 54.9022 147.217 54.7148Z" fill="#D3D3D3"/>
<path d="M158.748 54.7148C158.438 54.5273 158.186 54.2747 157.998 53.965C157.811 53.6554 157.713 53.3049 157.713 52.9301V52.7915H159.115V52.9301C159.115 53.1093 159.181 53.2723 159.311 53.4027C159.442 53.5331 159.596 53.5983 159.784 53.5983H165.729C165.909 53.5983 166.064 53.5331 166.202 53.4027C166.333 53.2723 166.398 53.1175 166.398 52.9301V51.4143C166.398 51.235 166.333 51.072 166.202 50.9416C166.072 50.8112 165.917 50.746 165.729 50.746H159.784C159.409 50.746 159.066 50.6482 158.748 50.4608C158.43 50.2734 158.186 50.0207 157.998 49.7111C157.811 49.4014 157.713 49.051 157.713 48.6761V47.1603C157.713 46.7854 157.811 46.4432 157.998 46.1254C158.186 45.8157 158.438 45.563 158.748 45.3756C159.058 45.1882 159.409 45.0904 159.784 45.0904H165.729C166.112 45.0904 166.463 45.1882 166.781 45.3756C167.091 45.563 167.344 45.8157 167.531 46.1254C167.719 46.435 167.817 46.7854 167.817 47.1603V47.2989H166.398V47.1603C166.398 46.981 166.333 46.818 166.202 46.6877C166.072 46.5573 165.917 46.4921 165.729 46.4921H159.784C159.605 46.4921 159.442 46.5573 159.311 46.6877C159.181 46.818 159.115 46.9729 159.115 47.1603V48.6761C159.115 48.8554 159.181 49.0184 159.311 49.1488C159.442 49.2792 159.596 49.3443 159.784 49.3443H165.729C166.112 49.3443 166.463 49.4421 166.781 49.6296C167.091 49.817 167.344 50.0696 167.531 50.3793C167.719 50.689 167.817 51.0394 167.817 51.4143V52.9301C167.817 53.3049 167.719 53.6472 167.531 53.965C167.344 54.2747 167.091 54.5273 166.781 54.7148C166.471 54.9022 166.121 55 165.729 55H159.784C159.409 55 159.066 54.9022 158.748 54.7148Z" fill="#D3D3D3"/>
<path d="M169.497 43.2568V41.8551H170.9V43.2568H169.497ZM169.497 54.9919V45.0985H170.9V54.9919H169.497Z" fill="#D3D3D3"/>
<path d="M173.803 54.7148C173.493 54.5273 173.24 54.2747 173.053 53.965C172.865 53.6554 172.767 53.3049 172.767 52.9301V47.1603C172.767 46.7854 172.865 46.4432 173.053 46.1254C173.24 45.8157 173.493 45.563 173.803 45.3756C174.113 45.1882 174.463 45.0904 174.838 45.0904H182.831V46.4921H174.838C174.659 46.4921 174.496 46.5573 174.365 46.6877C174.235 46.818 174.17 46.9729 174.17 47.1603V52.9301C174.17 53.1093 174.235 53.2723 174.365 53.4027C174.496 53.5331 174.651 53.5983 174.838 53.5983H182.863V55H174.838C174.463 55 174.121 54.9022 173.803 54.7148Z" fill="#D3D3D3"/>
</g>
<defs>
<clipPath id="clip0_266_3112">
<rect width="185" height="55" fill="white"/>
</clipPath>
</defs>
</svg>
