<svg width="24" height="24" viewBox="0 0 24 24" fill="none" xmlns="http://www.w3.org/2000/svg">
<mask id="mask0_2943_4916" style="mask-type:alpha" maskUnits="userSpaceOnUse" x="0" y="0" width="24" height="24">
<rect width="24" height="24" fill="#D9D9D9"/>
</mask>
<g mask="url(#mask0_2943_4916)">
<path d="M5.99999 20.6153C5.00578 20.6153 4.15466 20.2613 3.44664 19.5533C2.73864 18.8453 2.38464 17.9942 2.38464 17C2.38464 16.0058 2.73864 15.1547 3.44664 14.4466C4.15466 13.7386 5.00578 13.3846 5.99999 13.3846C6.99421 13.3846 7.84533 13.7386 8.55334 14.4466C9.26134 15.1547 9.61534 16.0058 9.61534 17C9.61534 17.9942 9.26134 18.8453 8.55334 19.5533C7.84533 20.2613 6.99421 20.6153 5.99999 20.6153ZM18 20.6153C17.0058 20.6153 16.1547 20.2613 15.4466 19.5533C14.7386 18.8453 14.3846 17.9942 14.3846 17C14.3846 16.0058 14.7386 15.1547 15.4466 14.4466C16.1547 13.7386 17.0058 13.3846 18 13.3846C18.9942 13.3846 19.8453 13.7386 20.5533 14.4466C21.2613 15.1547 21.6153 16.0058 21.6153 17C21.6153 17.9942 21.2613 18.8453 20.5533 19.5533C19.8453 20.2613 18.9942 20.6153 18 20.6153ZM6.00034 19.1154C6.58216 19.1154 7.08012 18.9082 7.49422 18.4939C7.90834 18.0796 8.11539 17.5815 8.11539 16.9996C8.11539 16.4178 7.90823 15.9199 7.49389 15.5058C7.07956 15.0917 6.58148 14.8846 5.99964 14.8846C5.41783 14.8846 4.91987 15.0918 4.50577 15.5061C4.09165 15.9204 3.88459 16.4185 3.88459 17.0003C3.88459 17.5822 4.09176 18.0801 4.50609 18.4942C4.92043 18.9083 5.41851 19.1154 6.00034 19.1154ZM18.0003 19.1154C18.5822 19.1154 19.0801 18.9082 19.4942 18.4939C19.9083 18.0796 20.1154 17.5815 20.1154 16.9996C20.1154 16.4178 19.9082 15.9199 19.4939 15.5058C19.0796 15.0917 18.5815 14.8846 17.9996 14.8846C17.4178 14.8846 16.9199 15.0918 16.5058 15.5061C16.0917 15.9204 15.8846 16.4185 15.8846 17.0003C15.8846 17.5822 16.0918 18.0801 16.5061 18.4942C16.9204 18.9083 17.4185 19.1154 18.0003 19.1154ZM12 10.6153C11.0058 10.6153 10.1547 10.2613 9.44664 9.55334C8.73864 8.84533 8.38464 7.99421 8.38464 6.99999C8.38464 6.00578 8.73864 5.15466 9.44664 4.44664C10.1547 3.73864 11.0058 3.38464 12 3.38464C12.9942 3.38464 13.8453 3.73864 14.5533 4.44664C15.2613 5.15466 15.6153 6.00578 15.6153 6.99999C15.6153 7.99421 15.2613 8.84533 14.5533 9.55334C13.8453 10.2613 12.9942 10.6153 12 10.6153ZM12.0003 9.11539C12.5822 9.11539 13.0801 8.90823 13.4942 8.49389C13.9083 8.07956 14.1154 7.58148 14.1154 6.99964C14.1154 6.41783 13.9082 5.91987 13.4939 5.50577C13.0796 5.09165 12.5815 4.88459 11.9996 4.88459C11.4178 4.88459 10.9199 5.09176 10.5058 5.50609C10.0917 5.92043 9.88459 6.41851 9.88459 7.00034C9.88459 7.58216 10.0918 8.08012 10.5061 8.49422C10.9204 8.90834 11.4185 9.11539 12.0003 9.11539Z" fill="#D3D3D3"/>
</g>
</svg>
