<svg width="24" height="24" viewBox="0 0 24 24" fill="none" xmlns="http://www.w3.org/2000/svg">
<mask id="mask0_2463_4981" style="mask-type:alpha" maskUnits="userSpaceOnUse" x="0" y="0" width="24" height="24">
<rect width="24" height="24" fill="#D9D9D9"/>
</mask>
<g mask="url(#mask0_2463_4981)">
<mask id="mask1_2463_4981" style="mask-type:alpha" maskUnits="userSpaceOnUse" x="0" y="0" width="24" height="24">
<rect width="24" height="24" fill="#D9D9D9"/>
</mask>
<g mask="url(#mask1_2463_4981)">
<path fill-rule="evenodd" clip-rule="evenodd" d="M10.5111 3.48442C11.0706 3.81869 11.567 4.24056 12 4.75002C12.433 4.24056 12.9294 3.81869 13.4889 3.48443C13.6616 3.38128 13.8403 3.28648 14.025 3.20002C14.8083 2.83336 15.6333 2.65002 16.5 2.65002C18.0667 2.65002 19.375 3.17502 20.425 4.22502C21.475 5.27502 22 6.58336 22 8.15002C22 8.91669 21.8708 9.66669 21.6125 10.4C21.3542 11.1334 20.9 11.9375 20.25 12.8125C19.6 13.6875 18.725 14.675 17.625 15.775C16.525 16.875 15.1333 18.1834 13.45 19.7L12 21L10.55 19.7C8.86667 18.1834 7.475 16.875 6.375 15.775C5.275 14.675 4.4 13.6875 3.75 12.8125C3.1 11.9375 2.64583 11.1334 2.3875 10.4C2.12917 9.66669 2 8.91669 2 8.15002C2 6.58336 2.525 5.27502 3.575 4.22502C4.625 3.17502 5.93333 2.65002 7.5 2.65002C8.36667 2.65002 9.19167 2.83336 9.975 3.20002C10.1597 3.28648 10.3384 3.38128 10.5111 3.48442ZM12.1113 18.2142L12 18.3139L11.8887 18.2142C11.8882 18.2136 11.8876 18.2131 11.887 18.2126C10.2197 16.7104 8.85603 15.4276 7.78921 14.3608C6.73174 13.3033 5.92845 12.3912 5.35549 11.6199C4.78097 10.8465 4.44481 10.2207 4.27388 9.73551C4.08966 9.21258 4 8.68712 4 8.15002C4 7.08134 4.33663 6.29182 4.98921 5.63924C5.6418 4.98665 6.43131 4.65002 7.5 4.65002C8.07425 4.65002 8.60974 4.76923 9.12712 5.0114C9.64763 5.25505 10.093 5.59453 10.4761 6.04532L12 7.83812L13.5239 6.04532C13.907 5.59453 14.3524 5.25505 14.8729 5.0114C15.3903 4.76923 15.9257 4.65002 16.5 4.65002C17.5687 4.65002 18.3582 4.98665 19.0108 5.63924C19.6634 6.29182 20 7.08134 20 8.15002C20 8.68712 19.9103 9.21258 19.7261 9.73551C19.5552 10.2207 19.219 10.8465 18.6445 11.6199C18.0716 12.3912 17.2683 13.3033 16.2108 14.3608C15.144 15.4276 13.7803 16.7104 12.113 18.2126C12.1124 18.2131 12.1118 18.2136 12.1113 18.2142Z" fill="#D3D3D3"/>
</g>
</g>
</svg>
